<svg width="1000" height="618" viewBox="0 0 1000 618" fill="none" xmlns="http://www.w3.org/2000/svg">
<path fill-rule="evenodd" clip-rule="evenodd" d="M1000 0.495073C982.648 8.55963 965.052 18.8228 947.275 31.6156C798.611 138.6 679.573 116.396 569.653 95.893L569.648 95.892C562.26 94.5139 554.913 93.1435 547.602 91.8206C507.647 84.5916 465.47 73.9918 422.729 63.2502C314.1 35.9497 201.827 7.73347 113.139 31.6156C67.2613 43.9695 30.3621 52.4858 0 57.0667V567.4C29.6377 570.814 65.4694 576.947 109.721 585.734C197.706 603.206 309.089 582.563 416.858 562.591C459.26 554.732 501.103 546.978 540.741 541.689C558.384 539.335 577.078 536.145 596.524 532.826C704.028 514.477 834.498 492.208 937.247 585.734C954.872 601.778 976.239 611.979 1000 617.737V0.495073Z" fill="black"/>
</svg>
