<svg width="96" height="114" viewBox="0 0 96 114" fill="none" xmlns="http://www.w3.org/2000/svg">
<g clip-path="url(#clip0_38_414)">
<path d="M1.24606 114C0.207182 113.352 0 112.361 0 111.231C0 77.6248 0 44.0166 0 10.4065C0 8.16697 0.600515 7.58402 2.86142 7.58402C5.4466 7.58402 8.03179 7.56023 10.614 7.58402C11.3436 7.58402 11.5898 7.39367 11.5658 6.65608C11.5147 5.13628 11.5297 3.61351 11.5658 2.09371C11.5928 0.689899 12.3074 0.0117882 13.7366 0.0117882C31.4495 0.0117882 49.1645 0.00484627 66.8814 -0.0090332C67.8603 -0.0090332 68.4818 0.469806 69.1033 1.08546C75.853 7.77735 82.6047 14.4663 89.3584 21.1522C91.1329 22.9099 92.8684 24.7034 94.6939 26.4076C95.1338 26.8034 95.4796 27.2909 95.7065 27.835C95.9334 28.3791 96.0357 28.9663 96.006 29.5542C95.98 41.7959 95.98 54.0366 96.006 66.2764C96.006 77.368 96.006 88.4587 96.006 99.5484C96.006 102.112 95.4926 102.627 92.9404 102.627C90.5384 102.627 88.1364 102.695 85.7523 102.597C84.6144 102.549 84.3982 102.93 84.4312 103.965C84.5093 106.374 84.4162 108.786 84.4733 111.195C84.5033 112.337 84.2841 113.301 83.3053 113.991L1.24606 114ZM15.403 51.2954C15.403 66.7314 15.397 82.1663 15.385 97.6003C15.385 98.4926 15.5591 98.79 16.5319 98.79C41.3269 98.7622 66.1238 98.7622 90.9227 98.79C91.8805 98.79 92.0847 98.4926 92.0847 97.6003C92.0607 75.5914 92.0607 53.5885 92.0847 31.5915C92.0847 30.6547 91.8265 30.4316 90.9017 30.4346C83.3353 30.4733 75.7689 30.4584 68.2026 30.4554C65.8155 30.4554 65.2511 29.8933 65.2511 27.4961C65.2511 20.0399 65.227 12.5806 65.2781 5.12439C65.2781 4.05964 65.0289 3.77113 63.93 3.7741C48.2007 3.81178 32.4684 3.81178 16.7331 3.7741C15.6762 3.7741 15.37 3.98826 15.373 5.0887C15.417 20.4969 15.427 35.8991 15.403 51.2954ZM3.92732 60.9139C3.92732 76.9011 3.91931 92.8882 3.90329 108.875C3.90329 109.91 4.10147 110.235 5.22442 110.232C19.1562 110.187 33.0849 110.202 47.0167 110.202C57.8378 110.202 68.6599 110.209 79.4831 110.223C80.3448 110.223 80.6481 110.035 80.609 109.131C80.531 107.427 80.5189 105.717 80.609 104.016C80.6661 102.933 80.4109 102.603 79.2339 102.606C57.7017 102.647 36.1695 102.657 14.6374 102.636C12.0312 102.636 11.5567 102.172 11.5567 99.6138C11.5567 70.9389 11.5567 42.2658 11.5567 13.5948C11.5356 13.2978 11.5356 12.9996 11.5567 12.7026C11.6919 11.73 11.3886 11.3226 10.2987 11.385C8.6157 11.4817 6.92844 11.4817 5.24544 11.385C4.15251 11.3196 3.88829 11.6497 3.89129 12.7234C3.93333 28.7879 3.94533 44.8514 3.92732 60.9139ZM88.851 26.5533L69.1423 7.03976C69.1423 6.9654 69.1213 7.0695 69.1213 7.1736C69.1213 13.3599 69.1213 19.5461 69.1003 25.7324C69.1003 26.473 69.4006 26.5652 70.0251 26.5622C74.1386 26.5414 78.252 26.5622 82.3655 26.5622L88.851 26.5533Z" fill="#FFDE00"/>
<path d="M59.4562 47.4589C66.9445 47.4589 74.4318 47.4589 81.9181 47.4589C83.5245 47.4589 84.4042 48.1608 84.4102 49.3891C84.4429 49.8018 84.3233 50.2121 84.0737 50.5441C83.8242 50.8761 83.4615 51.1071 83.0531 51.1944C82.5448 51.3142 82.0229 51.3672 81.5008 51.3521C66.8244 51.3521 52.149 51.3521 37.4746 51.3521C35.529 51.3521 34.5141 50.6531 34.5471 49.3594C34.5802 48.0656 35.553 47.45 37.4446 47.45L59.4562 47.4589Z" fill="#FFDE00"/>
<path d="M59.4802 62.764H37.4626C35.517 62.764 34.5021 62.065 34.5442 60.7623C34.5862 59.4597 35.562 58.8529 37.4446 58.8529C52.157 58.8529 66.8694 58.8529 81.5818 58.8529C82.0278 58.8523 82.4726 58.8982 82.909 58.9897C83.3426 59.047 83.7379 59.2659 84.0141 59.602C84.2903 59.938 84.4266 60.3658 84.3952 60.798C84.3952 61.7855 83.8668 62.3595 82.93 62.639C82.4942 62.7449 82.0447 62.7851 81.5969 62.758L59.4802 62.764Z" fill="#FFDE00"/>
<path d="M59.4681 74.1402C52.0919 74.1402 44.7167 74.1402 37.3425 74.1402C36.8953 74.1616 36.4472 74.1256 36.0094 74.0331C35.5788 73.9497 35.1945 73.7116 34.9301 73.3647C34.6658 73.0179 34.5401 72.5865 34.5772 72.1534C34.6282 71.1839 35.1776 70.4879 36.2345 70.3689C36.6431 70.3208 37.0542 70.298 37.4656 70.3005H81.4917C81.903 70.2946 82.3142 70.3155 82.7228 70.363C83.7466 70.4969 84.3321 71.0887 84.4012 72.1177C84.4422 72.5847 84.3015 73.0496 84.0079 73.4173C83.7144 73.7849 83.2901 74.0276 82.8219 74.0956C82.4143 74.1532 82.002 74.1722 81.5908 74.1521L59.4681 74.1402Z" fill="#FFDE00"/>
<path d="M59.4862 39.9104H37.3635C35.4869 39.9104 34.5111 39.2293 34.5471 37.9652C34.5832 36.7012 35.532 36.0856 37.3365 36.0856H81.9181C83.4914 36.0856 84.3472 36.7102 84.4072 37.8701C84.4324 38.11 84.4087 38.3524 84.3375 38.5831C84.2664 38.8138 84.1492 39.0279 83.993 39.2129C83.8368 39.3979 83.6446 39.5499 83.428 39.66C83.2114 39.7701 82.9746 39.836 82.7318 39.8538C82.2846 39.894 81.8355 39.9089 81.3867 39.8985L59.4862 39.9104Z" fill="#FFDE00"/>
<path d="M59.5793 81.7064C67.1036 81.7064 74.629 81.7064 82.1553 81.7064C83.6025 81.7064 84.4102 82.4024 84.4132 83.5921C84.4217 84.0587 84.253 84.5114 83.9405 84.8606C83.628 85.2098 83.1944 85.4301 82.7258 85.4777C82.3901 85.5015 82.0533 85.5075 81.7169 85.4956H37.2434C36.9434 85.5105 36.6427 85.5105 36.3427 85.4956C35.8538 85.452 35.3987 85.2301 35.0658 84.8728C34.7329 84.5156 34.5459 84.0485 34.5411 83.5623C34.5606 83.0948 34.7532 82.6508 35.0822 82.3151C35.4112 81.9793 35.8535 81.7754 36.3246 81.7421C37.4836 81.6856 38.6456 81.7124 39.8046 81.7124L59.5793 81.7064Z" fill="#FFDE00"/>
<path d="M30.6349 32.3055C28.8334 32.3055 27.0318 32.3055 25.2303 32.3055C23.7591 32.2877 23.0475 31.5768 23.0415 30.0986C23.0274 26.4999 23.0274 22.9022 23.0415 19.3054C23.0415 17.8451 23.7561 17.1342 25.2543 17.1223C28.8874 17.0985 32.5195 17.0985 36.1505 17.1223C37.6698 17.1223 38.3904 17.7767 38.4084 19.2786C38.4565 22.9111 38.4565 26.5455 38.4084 30.1819C38.3874 31.669 37.6338 32.2966 36.1265 32.3055C34.307 32.3174 32.4694 32.3085 30.6349 32.3055ZM34.5382 24.7243C34.5382 23.6893 34.5171 22.6424 34.5382 21.6193C34.5382 21.081 34.352 20.9204 33.8266 20.9263C31.7728 20.9501 29.7191 20.9501 27.6654 20.9263C27.0979 20.9263 26.8757 21.078 26.8847 21.6758C26.9147 23.7062 26.9147 25.7395 26.8847 27.7758C26.8847 28.3707 27.1009 28.5283 27.6684 28.5223C29.7201 28.4946 31.7728 28.4946 33.8266 28.5223C34.355 28.5223 34.5532 28.3647 34.5382 27.8294C34.5051 26.7943 34.5261 25.7593 34.5261 24.7243H34.5382Z" fill="#FFDE00"/>
<path d="M27.0018 62.764C26.1731 62.6926 25.3864 62.8443 24.5998 62.645C23.5969 62.3863 23.0385 61.7528 23.0685 60.7386C23.0486 60.3049 23.1972 59.8801 23.4836 59.5516C23.7701 59.223 24.1727 59.0156 24.6088 58.9719C26.1195 58.7325 27.659 58.7325 29.1696 58.9719C30.1424 59.1266 30.6709 59.7571 30.6889 60.7386C30.7159 61.7795 30.1545 62.3714 29.1726 62.6421C28.455 62.8621 27.6924 62.6926 27.0018 62.764Z" fill="#FFDE00"/>
<path d="M26.9537 47.4767C27.5878 47.444 28.2232 47.444 28.8574 47.4767C29.9833 47.5927 30.6889 48.3392 30.7129 49.3356C30.7369 50.3914 30.1424 51.1201 28.9714 51.2658C27.6007 51.4369 26.2137 51.4369 24.8429 51.2658C23.699 51.126 23.0414 50.3408 23.0655 49.3445C23.0895 48.3481 23.8311 47.5957 24.939 47.4797C25.5966 47.4232 26.2752 47.4797 26.9537 47.4767Z" fill="#FFDE00"/>
<path d="M26.8907 85.4956C26.2181 85.4956 25.5456 85.5283 24.876 85.4956C24.3866 85.4712 23.9253 85.2616 23.5873 84.9102C23.2493 84.5588 23.0604 84.0923 23.0595 83.6069C23.057 83.1205 23.247 82.6525 23.5889 82.3033C23.9307 81.9541 24.3971 81.7516 24.888 81.7392C26.2301 81.6946 27.5903 81.6916 28.9204 81.7392C29.165 81.7388 29.4072 81.7878 29.632 81.8832C29.8569 81.9786 30.0598 82.1184 30.2284 82.294C30.3969 82.4696 30.5276 82.6774 30.6125 82.9046C30.6973 83.1319 30.7346 83.3739 30.7219 83.6159C30.7332 84.1014 30.5501 84.5716 30.2126 84.9238C29.875 85.276 29.4105 85.4815 28.9204 85.4956C28.2388 85.5283 27.5543 85.4956 26.8907 85.4956Z" fill="#FFDE00"/>
<path d="M26.9267 74.1312C26.2932 74.1312 25.6566 74.1669 25.0231 74.1312C23.8731 74.0539 23.0745 73.2627 23.0595 72.2426C23.0444 71.2225 23.7831 70.3956 24.9631 70.3362C26.2632 70.2667 27.5662 70.2667 28.8663 70.3362C30.0253 70.4016 30.6679 71.1273 30.6919 72.1772C30.7159 73.2271 29.9713 74.0301 28.8183 74.1223C28.1998 74.1728 27.5542 74.1312 26.9267 74.1312Z" fill="#FFDE00"/>
<path d="M26.8546 39.8777C26.1821 39.8777 25.5065 39.9223 24.84 39.8777C24.3695 39.8618 23.923 39.668 23.5924 39.3361C23.2618 39.0042 23.0722 38.5594 23.0624 38.0932C23.0264 37.1564 23.717 36.2224 24.7018 36.157C26.1547 36.0678 27.6117 36.0678 29.0645 36.157C30.0734 36.2195 30.7219 37.0879 30.7039 38.0694C30.7185 38.5367 30.5451 38.9906 30.2219 39.3314C29.8987 39.6721 29.4522 39.8719 28.9804 39.8866C28.2748 39.9223 27.5542 39.8777 26.8546 39.8777Z" fill="#FFDE00"/>
</g>
<defs>
<clipPath id="clip0_38_414">
<rect width="96" height="114" fill="white"/>
</clipPath>
</defs>
</svg>
