<svg width="1000" height="663" viewBox="0 0 1000 663" fill="none" xmlns="http://www.w3.org/2000/svg">
<path fill-rule="evenodd" clip-rule="evenodd" d="M1000 41.7528C957.305 38.6913 905.711 28.1429 842.964 10.1078C765.811 -12.0676 682.405 36.3792 596.235 86.4317C534.619 122.222 471.589 158.833 408.421 171.032C405.948 171.51 403.413 172.003 400.82 172.508C295.668 192.975 93.9558 232.236 -3 0.522882V662.477C93.9558 430.763 295.668 470.025 400.82 490.491C403.413 490.996 405.948 491.49 408.421 491.967C471.589 504.166 534.619 540.778 596.235 576.568C682.405 626.62 765.811 675.067 842.964 652.892C905.711 634.857 957.305 624.308 1000 621.247V41.7528Z" fill="black"/>
</svg>
