<svg width="1920" height="1627" viewBox="0 0 1920 1627" fill="none" xmlns="http://www.w3.org/2000/svg">
<path fill-rule="evenodd" clip-rule="evenodd" d="M333 1237C277.339 1409.69 113.042 1555.57 0 1626.65V0.349161C113.042 71.435 277.339 217.308 333 390C436.602 711.431 706.169 663.661 841.869 639.614C843.062 639.403 844.244 639.193 845.416 638.986C846.718 638.755 848.006 638.527 849.282 638.303C849.857 638.201 850.43 638.1 851 638C926.881 624.658 1002.6 584.617 1076.61 545.474C1180.13 490.732 1280.32 437.747 1373 462C1587 518 1693 508 1753 432C1754.68 429.868 1756.37 427.722 1758.07 425.568C1808.12 362.097 1864.73 290.303 1920 286.979V1340.02C1864.73 1336.7 1808.12 1264.9 1758.07 1201.43C1756.37 1199.28 1754.68 1197.13 1753 1195C1693 1119 1587 1109 1373 1165C1280.32 1189.25 1180.13 1136.27 1076.61 1081.53C1002.6 1042.38 926.881 1002.34 851 989C848.029 988.478 844.984 987.938 841.869 987.386C706.169 963.339 436.602 915.569 333 1237Z" fill="black"/>
</svg>
