<svg width="111" height="90" viewBox="0 0 111 90" fill="none" xmlns="http://www.w3.org/2000/svg">
<g clip-path="url(#clip0_39_581)">
<path d="M55.4983 89.9538C39.5451 89.9538 23.5889 89.8907 7.63865 89.9988C6.63131 90.0085 5.63219 89.816 4.69988 89.4325C3.76757 89.0491 2.92085 88.4824 2.20936 87.7658C1.49786 87.0492 0.935923 86.1971 0.5565 85.2594C0.177078 84.3217 -0.0121979 83.3173 -0.000216079 82.3051C0.0894423 57.4383 0.0894423 32.5694 -0.000216079 7.69854C-0.0166725 6.68563 0.169197 5.6797 0.546395 4.74023C0.923593 3.80075 1.48446 2.94682 2.19582 2.22895C2.90719 1.51108 3.75461 0.943852 4.68795 0.560802C5.62129 0.177752 6.6216 -0.0133419 7.62972 -0.00116126C16.8705 0.13998 26.1143 0.0679005 35.361 0.0288614C38.4662 0.0288614 41.135 0.977828 43.3107 3.20005C43.7859 3.68654 44.291 3.63848 44.8379 3.63848C58.8545 3.63848 72.8701 3.63149 86.8847 3.61747C87.3977 3.59336 87.9099 3.68157 88.3857 3.87602C88.8615 4.07046 89.2895 4.36649 89.6402 4.7436C94.6212 9.80266 99.6281 14.8357 104.661 19.8427C104.994 20.1368 105.256 20.5033 105.427 20.9144C105.598 21.3255 105.673 21.7703 105.647 22.215C105.581 23.6355 105.647 25.0619 105.62 26.4853C105.593 26.7004 105.644 26.9181 105.764 27.0984C105.883 27.2788 106.064 27.4098 106.272 27.4673C109.488 28.8096 111 31.1129 111 34.5994V82.3472C111 86.9388 108.011 89.9478 103.468 89.9478L55.4983 89.9538ZM55.5371 79.167C72.3889 79.167 89.2407 79.175 106.092 79.191C107.133 79.191 107.455 79.0018 107.452 77.8787C107.407 63.6054 107.422 49.3322 107.422 35.0589C107.422 31.9628 106.078 30.6115 102.999 30.6115C86.5938 30.6115 70.1893 30.6115 53.7858 30.6115C49.9245 30.6115 46.6729 28.167 45.7166 24.4493C45.4894 23.5754 45.1189 23.3983 44.285 23.4013C31.1232 23.4293 17.9623 23.4293 4.80247 23.4013C3.77139 23.4013 3.60702 23.7015 3.60702 24.6535C3.63691 42.4092 3.63691 60.166 3.60702 77.9238C3.60702 78.9508 3.86704 79.206 4.88316 79.203C21.7648 79.163 38.6495 79.151 55.5371 79.167ZM45.9108 7.23306C46.9359 12.3382 48.0417 17.3322 48.8994 22.3652C49.3657 25.0679 51.1947 27.0619 54.6794 27.0469C69.6613 26.9778 84.6432 27.0168 99.6251 27.0168C102.055 27.0168 102.016 27.0168 102.07 24.5784C102.094 23.6775 101.882 23.3772 100.925 23.3772C96.6395 23.4343 92.3538 23.3772 88.0742 23.4102C87.2224 23.4102 86.4274 23.2481 86.1554 22.3922C85.9193 21.6445 85.5069 21.5934 84.8614 21.5934C74.6882 21.6115 64.5129 21.6115 54.3357 21.5934C51.9448 21.5934 52.0016 21.5934 51.9149 19.2391C51.8761 18.176 52.2138 17.9748 53.209 17.9778C63.7588 18.0108 74.3056 17.9778 84.8524 18.0169C85.7072 18.0169 85.9911 17.8307 85.9702 16.9208C85.9074 14.0769 85.8895 11.2151 85.9702 8.38323C86.003 7.33819 85.6713 7.18203 84.7239 7.18203C72.1717 7.21407 59.6116 7.22106 47.0435 7.20304L45.9108 7.23306ZM55.6418 82.7616H5.10432C4.84349 82.7751 4.58214 82.7751 4.3213 82.7616C3.67278 82.6955 3.5921 82.9508 3.74153 83.5454C4.20178 85.3772 5.60642 86.3622 7.88673 86.3622H103.149C103.409 86.3622 103.672 86.3622 103.932 86.3622C105.372 86.221 106.475 85.5574 107.085 84.2C107.682 82.9147 107.569 82.7736 106.188 82.7736L55.6418 82.7616ZM24.0731 19.8247C30.5972 19.8247 37.1243 19.8066 43.6485 19.8457C44.5002 19.8457 44.7542 19.6625 44.545 18.8036C44.125 17.177 43.7918 15.5291 43.5468 13.8667C43.4064 12.7706 42.9491 12.5904 41.9569 12.6054C38.0448 12.6625 34.1297 12.6295 30.2146 12.6295C21.6762 12.6295 13.1407 12.6295 4.60225 12.6115C3.84613 12.6115 3.55923 12.7646 3.5921 13.5844C3.65486 15.3051 3.66682 17.0349 3.5921 18.7526C3.55026 19.6775 3.87602 19.8457 4.71881 19.8427C11.1712 19.8096 17.6206 19.8247 24.0701 19.8247H24.0731ZM42.4709 9.03486C41.7776 5.7676 39.0131 3.62946 35.4865 3.62946C26.2796 3.61745 17.0707 3.61745 7.85984 3.62946C5.00572 3.62946 3.67578 5.04388 3.59509 7.91776C3.57118 8.92076 3.92683 9.04688 4.79054 9.04388C13.069 9.01385 21.3444 9.02588 29.6229 9.02588L42.4709 9.03486ZM98.9049 19.8217L89.5236 10.3982C89.5236 13.137 89.5236 16.128 89.5236 19.1069C89.5236 19.5154 89.5236 19.8247 90.0915 19.8217C93.1309 19.8127 96.1613 19.8217 98.9019 19.8217H98.9049Z" fill="#FFDE00"/>
<path d="M57.3096 54.1652C57.3096 57.4685 57.3096 60.7718 57.3096 64.0541C57.3096 64.6787 57.4262 65.0241 58.0926 65.2823C61.0454 66.4385 62.6831 68.955 62.6921 72.1712C62.7011 75.3874 62.5397 75.5706 59.2911 75.5706C56.3822 75.5706 53.4752 75.5706 50.5703 75.5706C48.9535 75.5706 48.4514 74.97 48.3617 73.3244C48.1973 70.3664 48.9445 67.8439 51.4639 66.0631C51.6592 65.8884 51.8866 65.7537 52.1333 65.6667C53.7023 65.3664 53.7861 64.3124 53.7741 62.964C53.7084 56.7478 53.7293 50.5286 53.7741 44.3124C53.7741 43.4625 53.6038 43.1592 52.6892 43.1833C49.9995 43.2493 47.3097 43.2283 44.6379 43.1833C43.8788 43.1833 43.7772 43.3664 44.0163 44.0842C45.2596 47.7198 46.4719 51.3664 47.6534 55.0241C47.8297 55.5646 48.0419 55.7809 48.6367 55.8379C49.6349 55.934 50.1908 56.6968 50.1728 57.7028C50.0891 61.7358 47.0497 65.4836 43.1346 66.3815C41.0264 66.867 38.8137 66.5412 36.9327 65.4683C35.0518 64.3954 33.6391 62.6534 32.9733 60.5856C32.7253 59.8049 32.5161 59.0091 32.3428 58.2072C32.0439 56.8859 32.6416 56.0151 33.9865 55.8259C34.1675 55.822 34.3419 55.7572 34.4817 55.6417C34.6216 55.5263 34.7187 55.3669 34.7576 55.1893C35.9949 51.4355 37.2421 47.6838 38.4993 43.934C38.7204 43.2733 38.4455 43.1862 37.8837 43.2043C36.8765 43.2343 35.8693 43.1742 34.8652 43.2253C34.2107 43.2583 34.0702 43.0121 34.0582 42.3935C34.0014 39.6187 33.9835 39.6187 36.7211 39.6187C42.0528 39.6187 47.3815 39.6007 52.7131 39.6367C53.5171 39.6367 53.8428 39.4866 53.7801 38.6037C53.6964 37.4505 53.7801 36.2823 53.7472 35.1232C53.7263 34.4865 53.8398 34.2223 54.584 34.2013C57.3365 34.1712 57.3365 34.1382 57.3365 36.904C57.3365 39.6697 57.3365 39.6307 60.0263 39.6307C65.3191 39.6307 70.6119 39.6487 75.9048 39.6127C76.7326 39.6127 77.0643 39.7508 77.0434 40.6907C76.9866 43.2223 77.0434 43.2253 74.4672 43.2253C72.3752 43.2253 72.3752 43.2253 73.0148 45.1892C74.0966 48.4475 75.1995 51.6998 76.2604 54.961C76.4427 55.5226 76.6399 55.8049 77.3034 55.8619C78.2807 55.94 78.8366 56.7628 78.7977 57.7568C78.7085 59.7729 77.9711 61.7055 76.6962 63.2648C75.4213 64.8242 73.6776 65.9262 71.7267 66.4055C69.6168 66.8845 67.4048 66.5509 65.5278 65.4706C63.6508 64.3902 62.2454 62.6417 61.5893 60.5706C61.3532 59.8229 61.1559 59.0691 60.9916 58.3004C60.6748 56.922 61.2396 56.0541 62.6533 55.8409C62.8339 55.8298 63.0056 55.7576 63.1402 55.636C63.2747 55.5144 63.3644 55.3506 63.3944 55.1712C64.6227 51.4535 65.8481 47.7328 67.1063 44.0271C67.3424 43.3304 67.1332 43.2133 66.4817 43.2193C63.7232 43.2463 60.9617 43.2643 58.2062 43.2193C57.3993 43.2043 57.3096 43.5376 57.3096 44.2042C57.3246 47.4985 57.3096 50.8319 57.3096 54.1652ZM41.216 59.3874C39.8442 59.3874 38.4694 59.3874 37.0976 59.3874C36.6344 59.3874 36.3953 59.4415 36.6165 60.0151C37.2142 61.5796 39.2584 62.949 41.1353 62.985C43.0121 63.0211 45.1221 61.6637 45.7766 60.0391C45.9858 59.5136 45.8543 59.3814 45.3372 59.3874C43.9655 59.3965 42.5907 59.3874 41.216 59.3874ZM69.8857 59.3874C68.5468 59.3874 67.196 59.4085 65.875 59.3874C65.2085 59.3874 64.9784 59.5076 65.34 60.1923C66.3203 61.9941 67.8534 62.967 69.8468 62.961C71.8402 62.955 73.3794 61.985 74.3297 60.1712C74.6286 59.6277 74.5927 59.3724 73.8815 59.3874C72.5575 59.4085 71.2216 59.3844 69.8857 59.3844V59.3874ZM38.3558 55.7838C40.149 55.7838 41.7808 55.7658 43.4126 55.7838C44.0103 55.7838 43.9834 55.4835 43.8489 55.0901C43.55 54.1712 43.2512 53.2493 42.9314 52.3334C42.3935 50.7318 41.8535 49.1302 41.3116 47.5286L41.0725 47.5466C40.1789 50.2763 39.2883 52.976 38.3558 55.7899V55.7838ZM72.695 55.7838C71.7536 52.955 70.851 50.2493 69.9485 47.5436C68.8696 50.0991 68.0357 52.6067 67.19 55.1082C66.9927 55.6877 67.2079 55.8049 67.7488 55.7959C69.3089 55.7748 70.8719 55.7899 72.695 55.7899V55.7838ZM55.5015 71.97C56.5027 71.97 57.5069 71.949 58.5081 71.97C59.043 71.97 59.1058 71.7839 59.0191 71.3004C58.8479 70.4916 58.4119 69.7637 57.7808 69.233C57.1497 68.7023 56.3599 68.3993 55.5374 68.3724C54.7142 68.3868 53.92 68.6803 53.2836 69.2053C52.6473 69.7302 52.2061 70.4558 52.0317 71.2643C51.9062 71.8349 52.0556 71.9881 52.6056 71.97C53.5709 71.961 54.5362 71.976 55.5015 71.976V71.97Z" fill="#FFDE00"/>
<path d="M64.3508 14.4264C60.5522 14.4264 56.7537 14.3994 52.9552 14.4504C52.0945 14.4504 51.9122 14.2012 51.9241 13.3814C51.96 10.8348 51.9241 10.8348 54.4764 10.8348C61.6252 10.8348 68.7769 10.8528 75.9286 10.8108C76.8252 10.8108 77.0315 11.0811 77.0165 11.9369C76.9717 14.4264 77.0165 14.4294 74.521 14.4294L64.3508 14.4264Z" fill="#FFDE00"/>
</g>
<defs>
<clipPath id="clip0_39_581">
<rect width="111" height="90" fill="white"/>
</clipPath>
</defs>
</svg>
