<svg width="1920" height="918" viewBox="0 0 1920 918" fill="none" xmlns="http://www.w3.org/2000/svg">
<path fill-rule="evenodd" clip-rule="evenodd" d="M1920 104.585C1817.1 56.6092 1684.72 29.6525 1543.12 131.554C1357.95 264.812 1209.68 237.155 1072.76 211.617C1063.56 209.9 1054.4 208.193 1045.29 206.544C995.528 197.54 942.992 184.337 889.755 170.957C754.447 136.952 614.601 101.806 504.132 131.554C296.889 187.36 236.733 180.295 178.628 104.557C129.979 41.1447 59.247 -3.3683 0 0.200075V917.865C58.724 920.367 128.758 887.831 176.951 841.508C234.596 786.1 294.274 780.931 499.875 821.758C609.468 843.521 748.206 817.809 882.442 792.931L882.443 792.931L882.444 792.931C935.259 783.143 987.377 773.484 1036.75 766.896C1058.72 763.964 1082.01 759.99 1106.23 755.856C1240.14 733.001 1402.65 705.263 1530.63 821.758C1620.62 903.666 1788.88 863.332 1920 820.586V104.585Z" fill="black"/>
</svg>
