<svg width="480" height="339" viewBox="0 0 480 339" fill="none" xmlns="http://www.w3.org/2000/svg">
<path fill-rule="evenodd" clip-rule="evenodd" d="M480 13.8909C398.609 67.8889 332.464 55.3459 271.167 43.7223C266.845 42.9028 262.547 42.0878 258.27 41.301C234.902 37.0028 210.235 30.7004 185.237 24.3137L185.237 24.3137L185.237 24.3136C121.704 8.08126 56.0401 -8.69552 4.17004 5.50429C2.76571 5.88874 1.37577 6.26693 0 6.63887V334.535C0.719922 334.679 1.44371 334.825 2.17139 334.972C53.6303 345.36 118.774 333.087 181.804 321.211C206.603 316.539 231.075 311.928 254.258 308.784C264.576 307.384 275.51 305.487 286.883 303.514C347.629 292.973 420.913 280.257 480 329.558V13.8909Z" fill="black"/>
</svg>
