<svg width="110" height="114" viewBox="0 0 110 114" fill="none" xmlns="http://www.w3.org/2000/svg">
<g clip-path="url(#clip0_38_573)">
<path d="M106.624 36.7659C106.624 54.8378 106.624 72.9087 106.624 90.9787C106.624 92.1067 106.385 92.4668 105.172 92.44C101.896 92.3478 98.6112 92.3597 95.3323 92.44C94.2947 92.4638 94.1223 92.1424 94.1223 91.2019C94.1526 73.3185 94.1586 55.4331 94.1404 37.5457C94.1404 37.3612 94.1404 37.1737 94.1404 36.9892C94.1404 31.4265 94.1798 25.8669 94.1404 20.3042C94.1404 19.4113 94.3129 19.0958 95.296 19.1137C98.6879 19.1772 102.08 19.1772 105.472 19.1137C106.446 19.0958 106.63 19.4113 106.624 20.3042C106.591 25.7895 106.624 31.2777 106.624 36.7659H109.973C109.973 36.6558 110 36.5457 110 36.4326C110 24.8946 109.989 13.3546 109.967 1.81265C109.967 0.565595 109.362 0.0268908 108.07 0.0090332C102.98 0.0090332 97.8893 0.0090332 92.7974 0.0090332C91.3031 0.0090332 90.7889 0.529876 90.7828 2.03289C90.7828 6.37626 90.7758 10.7186 90.7617 15.06C90.7617 22.3697 90.7677 29.6785 90.7798 36.9862C90.7798 55.6375 90.7717 74.2937 90.7556 92.9549C90.7573 93.8804 90.9637 94.7945 91.3606 95.6335C93.8954 101.13 96.4162 106.632 98.9228 112.14C99.2116 112.857 99.6724 113.496 100.266 114H101.624C102.066 113.521 102.531 113.107 102.798 112.446C105.066 106.765 107.371 101.095 109.67 95.4222C109.875 94.9515 109.986 94.4462 109.997 93.9341C109.983 74.886 109.976 55.8379 109.976 36.7897L106.624 36.7659ZM94.933 3.28589C98.5628 3.31268 102.169 3.31863 105.783 3.28589C106.533 3.28589 106.642 3.58352 106.63 4.22044C106.603 6.0062 106.63 7.77708 106.63 9.55689H106.612C106.612 11.3426 106.594 13.1284 106.612 14.8963C106.612 15.5243 106.503 15.8219 105.759 15.813C102.144 15.7773 98.5265 15.7862 94.9088 15.813C94.3038 15.813 94.1344 15.6225 94.1374 15.0481C94.1495 11.4131 94.1435 7.78006 94.1193 4.14901C94.1163 3.54186 94.2645 3.28291 94.933 3.28589ZM100.943 108.244L95.06 95.5621H105.916L100.943 108.244Z" fill="#FFDE00"/>
<path d="M84.2159 39.1944H87.5675C87.5675 38.8968 87.6007 38.5992 87.6007 38.3015C87.5886 26.3171 87.5765 14.3297 87.5644 2.33929C87.5644 0.496983 87.0381 0.00292969 85.1173 0.00292969H43.8155C35.5938 0.00292969 27.3712 0.00292969 19.1476 0.00292969C18.4095 0.00292969 17.7198 0.0564916 17.1844 0.642816C11.6166 6.79377 6.04274 12.9338 0.462832 19.0629C0.154931 19.3949 -0.0108705 19.831 1.57875e-05 20.2802C0.0121153 26.2923 0.0201684 32.3034 0.0242016 38.3134C0.0242016 62.7188 0.0171598 87.1243 0.00304363 111.53C0.00304363 112.512 0.181512 113.315 0.91051 114.006H86.4604C87.1319 113.491 87.5917 112.931 87.5917 111.985C87.5675 87.7225 87.5604 63.4599 87.5705 39.1974H84.2189C84.2189 62.573 84.2189 85.9476 84.2189 109.321C84.2189 110.908 84.2189 110.908 82.6066 110.908C56.6652 110.908 30.7228 110.916 4.77935 110.931C3.65712 110.931 3.35461 110.693 3.35763 109.55C3.39393 85.8058 3.40202 62.0601 3.38186 38.3134C3.38186 33.1943 3.4242 28.0721 3.38186 22.9529C3.38186 22.0243 3.62382 21.7773 4.56759 21.7892C9.0172 21.8398 13.4668 21.813 17.9164 21.8101C19.565 21.8101 20.1488 21.2356 20.1488 19.5957C20.1488 14.5122 20.1488 9.42876 20.1095 4.34529C20.1095 3.51492 20.3303 3.28278 21.1803 3.28278C41.8463 3.30659 62.5164 3.30659 83.1905 3.28278C84.1978 3.28278 84.2431 3.70839 84.2401 4.47329C84.2119 15.6045 84.1987 26.7368 84.2008 37.87C84.1856 38.3015 84.2038 38.751 84.2159 39.1944ZM15.9593 18.4766C12.4989 18.4469 9.03838 18.4766 5.22097 18.4766L16.5098 6.02094L16.7609 6.13999V10.7502C16.7609 13.0479 16.7397 15.3426 16.7609 17.6373C16.767 18.2177 16.6399 18.4826 15.9593 18.4766Z" fill="#FFDE00"/>
<path d="M23.7091 39.2808C22.6655 40.2897 21.5917 41.2838 20.5813 42.3136C19.7162 43.1797 19.6739 44.2631 20.3999 44.9744C21.1258 45.6857 22.003 45.5696 22.9559 44.6768C23.7696 43.891 24.5712 43.0904 25.5815 42.0993V43.6113C25.5815 53.4786 25.5815 63.3449 25.5815 73.2103C25.5815 74.7609 26.0987 75.2639 27.6807 75.2668H64.4815C66.4749 75.2668 66.9982 74.746 66.9982 72.746C66.9982 62.954 66.9982 53.1631 66.9982 43.3732C66.9982 42.9803 66.9982 42.5874 66.9982 41.8672C67.9934 42.9208 68.7708 43.7452 69.5543 44.5696C70.4799 45.5458 71.4599 45.6887 72.204 44.9625C72.9482 44.2363 72.8544 43.1767 71.9742 42.2839C70.0352 40.3642 68.0691 38.4683 66.115 36.5635C66.0906 36.691 66.0166 36.8041 65.9086 36.8786C65.8007 36.9531 65.6674 36.9832 65.5372 36.9623C65.6674 36.9832 65.8007 36.9531 65.9086 36.8786C66.0166 36.8041 66.0906 36.691 66.115 36.5635C65.8367 36.2658 65.5705 35.9503 65.2771 35.6706C60.2618 30.8014 55.2455 25.9322 50.2283 21.0631C46.9009 17.8368 45.4429 17.8398 42.1337 21.0631C41.3563 21.822 40.6666 22.6822 39.6139 23.3667C39.6139 21.3905 39.6321 19.5779 39.6139 17.7654C39.5988 16.426 38.9485 15.807 37.5873 15.801C35.2127 15.801 32.8382 15.801 30.4636 15.801C28.6033 15.801 28.083 16.3219 28.08 18.1999C28.08 23.4649 28.0619 28.7329 28.08 33.9979C28.0948 34.2889 28.0442 34.5796 27.9318 34.8491C27.8194 35.1187 27.6479 35.3605 27.4297 35.5575C26.1562 36.7688 24.9432 38.0337 23.7091 39.2808ZM52.1612 72.1477C48.245 72.1219 44.3287 72.1219 40.4125 72.1477C39.7531 72.1477 39.5897 71.9364 39.5988 71.3203C39.6291 68.8024 39.5988 66.2815 39.5988 63.7606C39.5988 61.2784 39.62 58.7962 39.5988 56.3199C39.5988 55.6651 39.7319 55.427 40.4609 55.427C44.3388 55.4628 48.2177 55.4628 52.0976 55.427C52.8236 55.427 52.9658 55.6592 52.9627 56.3199C52.9385 61.324 52.9385 66.3271 52.9627 71.3292C52.9748 71.9334 52.8236 72.1537 52.1612 72.1477ZM65.5281 36.9623H65.3799H65.5281ZM32.1757 19.1255C33.304 19.1523 34.4323 19.1493 35.5576 19.1255C36.0415 19.1255 36.223 19.2862 36.22 19.7684C36.2018 21.9857 36.22 24.206 36.22 26.4263C36.2285 26.5929 36.1996 26.7593 36.1353 26.9136C36.071 27.068 35.9729 27.2064 35.8479 27.3192C34.3839 28.6466 32.9108 29.9621 31.474 31.2538C31.474 27.5722 31.474 23.6971 31.474 19.8249C31.4619 19.2922 31.6464 19.1136 32.1757 19.1255ZM38.3858 29.3579C40.8057 27.0989 43.0078 24.6316 45.4096 22.3548C46.069 21.7327 46.4048 21.8012 47.0219 22.4202C51.8345 27.218 56.7015 31.9741 61.5413 36.7391C61.7258 36.9206 61.9406 37.0694 62.1463 37.2361C62.7936 36.8879 63.4773 36.9385 64.1609 36.9593C63.4773 36.9295 62.7936 36.8879 62.1463 37.2361C63.6194 38.2599 63.6587 39.7332 63.6587 41.3374C63.6769 51.2067 63.7455 61.076 63.8644 70.9453C63.8644 71.9364 63.6255 72.2043 62.6273 72.1596C60.8123 72.0733 58.9974 72.0912 57.2006 72.1596C56.3627 72.1894 56.1208 71.9721 56.1298 71.1239C56.1752 66.0642 56.157 61.0314 56.157 55.9866C56.157 53.6205 54.8745 52.3258 52.4788 52.3198C48.2157 52.3039 43.9546 52.3039 39.6956 52.3198C37.4541 52.3198 36.2291 53.555 36.2261 55.7961C36.2261 60.8766 36.226 65.9601 36.2502 71.0435C36.2502 71.8888 36.0778 72.2073 35.1492 72.1626C33.4552 72.0823 31.7553 72.0793 30.0613 72.1626C29.1115 72.2102 28.9754 71.865 28.9754 71.0316C28.9936 60.569 28.9936 50.1055 28.9754 39.6409C28.9614 39.3677 29.0082 39.0948 29.1127 38.8414C29.2172 38.5879 29.3769 38.36 29.5804 38.1736C32.5145 35.239 35.3428 32.1884 38.3858 29.3728V29.3579Z" fill="#FFDE00"/>
<path d="M75.0717 90.9816C74.7692 89.922 73.9888 89.7166 72.9784 89.7166C63.2504 89.7385 53.5234 89.7385 43.7974 89.7166H14.8432C14.4669 89.6972 14.0897 89.7062 13.7148 89.7434C13.2942 89.7784 12.9044 89.9746 12.6294 90.2897C12.3544 90.6048 12.2163 91.0136 12.2448 91.428C12.2266 92.3715 12.8195 92.8388 13.6846 93.0054C14.0589 93.0507 14.4366 93.0617 14.8129 93.0382H72.7183C73.0206 93.0532 73.3235 93.0532 73.6258 93.0382C73.8706 93.0248 74.1091 92.9566 74.323 92.8387C74.537 92.7208 74.7207 92.5564 74.8602 92.358C74.9997 92.1596 75.0913 91.9324 75.1279 91.6939C75.1646 91.4553 75.1453 91.2117 75.0717 90.9816Z" fill="#FFDE00"/>
<path d="M74.4999 79.877C74.0129 79.4127 73.3928 79.4872 72.7909 79.4872H14.7433C13.0766 79.4872 12.2478 80.0646 12.2327 81.2283C12.2327 82.3206 12.9949 82.8206 14.7161 82.8206H52.509C59.4118 82.8206 66.3146 82.8206 73.2174 82.8206C74.0583 82.8206 74.7298 82.5825 75.0323 81.7878C75.3227 81.0586 75.0565 80.4128 74.4999 79.877Z" fill="#FFDE00"/>
<path d="M72.8302 99.9759C53.4548 99.9878 34.0794 99.9878 14.704 99.9759C14.4801 99.9759 14.2533 99.9759 14.0264 99.9759C12.9526 100.053 12.2115 100.785 12.2447 101.762C12.2629 102.631 12.9314 103.217 13.9962 103.283C14.2986 103.303 14.6011 103.283 14.9036 103.283H72.679C73.0177 103.298 73.3572 103.293 73.6953 103.268C73.9403 103.245 74.1765 103.165 74.3847 103.036C74.593 102.907 74.7677 102.732 74.8947 102.524C75.0217 102.317 75.0976 102.083 75.1163 101.842C75.1349 101.6 75.0958 101.358 75.002 101.134C74.636 100.122 73.8103 99.9729 72.8302 99.9759Z" fill="#FFDE00"/>
<path d="M48.1229 45.147C50.688 44.4089 52.2337 42.6767 52.7782 40.0874C53.4225 37.7064 52.3516 34.8849 50.204 33.3581C47.9081 31.7241 45.0617 31.5931 42.8112 33.0158C41.6627 33.7241 40.7565 34.755 40.2097 35.9753C39.6629 37.1956 39.5007 38.5492 39.7439 39.8612C40.4639 43.9 44.1875 46.2721 48.1229 45.147ZM44.7955 35.5248C45.4982 35.1919 46.2956 35.1058 47.0551 35.2807C47.8145 35.4556 48.4902 35.8809 48.9698 36.4861C49.7442 37.4058 49.9106 38.4802 49.7049 39.6291C49.0273 41.1321 47.9172 42.0845 46.187 42.0696C44.6473 42.0696 43.6248 41.2005 42.9836 39.8642C42.5389 37.885 43.1983 36.3075 44.7924 35.5158L44.7955 35.5248Z" fill="#FFDE00"/>
</g>
<defs>
<clipPath id="clip0_38_573">
<rect width="110" height="114" fill="white"/>
</clipPath>
</defs>
</svg>
