<svg width="480" height="534" viewBox="0 0 480 534" fill="none" xmlns="http://www.w3.org/2000/svg">
<path fill-rule="evenodd" clip-rule="evenodd" d="M480 129.188C464.318 126.79 446.286 122.421 425.484 116.081C391.331 105.672 354.41 128.413 316.265 151.908C288.989 168.708 261.087 185.894 233.125 191.62C232.03 191.844 230.908 192.076 229.76 192.313C179.754 202.633 80.4165 223.136 42.2388 85.1794C33.6906 54.2903 18.1894 25.4004 0 -6.49526e-05V533.887C18.1894 508.487 33.6906 479.597 42.2388 448.708C80.4165 310.751 179.754 331.254 229.76 341.575C230.908 341.812 232.03 342.043 233.125 342.267C261.087 347.994 288.989 365.179 316.264 381.979L316.265 381.979C354.41 405.474 391.331 428.215 425.484 417.806C446.286 411.466 464.318 407.097 480 404.699V129.188Z" fill="black"/>
</svg>
