<svg width="165" height="66" viewBox="0 0 165 66" fill="none" xmlns="http://www.w3.org/2000/svg">
<g clip-path="url(#clip0_35_283)">
<path d="M81.1323 31.0907L47.4327 20.6802C46.8649 20.5043 46.3649 20.1596 45.9999 19.6925C45.6349 19.2253 45.4225 18.6582 45.3912 18.0673C45.3599 17.4765 45.5112 16.8903 45.8248 16.3875C46.1384 15.8848 46.5992 15.4897 47.1452 15.2553L80.7883 0.834901C81.4257 0.564419 82.139 0.528233 82.8008 0.732762L116.516 11.1432C117.084 11.3191 117.584 11.6638 117.949 12.131C118.314 12.5981 118.526 13.1652 118.557 13.7561C118.589 14.347 118.437 14.9332 118.124 15.4359C117.81 15.9387 117.349 16.3338 116.803 16.5681L83.1448 30.9834C82.5086 31.2583 81.7943 31.2963 81.1323 31.0907Z" fill="#FFDE00"/>
<path d="M127.349 45.3731L93.649 34.9474C93.0812 34.7715 92.5811 34.4267 92.2162 33.9596C91.8512 33.4925 91.6387 32.9254 91.6074 32.3345C91.5761 31.7436 91.7274 31.1574 92.041 30.6547C92.3546 30.1519 92.8154 29.7568 93.3615 29.5225L127.005 15.1072C127.641 14.835 128.355 14.797 129.017 14.9999L162.722 25.4257C163.29 25.6016 163.79 25.9463 164.155 26.4134C164.52 26.8806 164.732 27.4477 164.763 28.0386C164.795 28.6295 164.643 29.2157 164.33 29.7184C164.016 30.2212 163.555 30.6162 163.009 30.8506L129.351 45.2659C128.717 45.5356 128.008 45.5736 127.349 45.3731Z" fill="#FFDE00"/>
<path d="M36.0917 50.6704L2.39213 40.26C1.82434 40.0841 1.32431 39.7393 0.95932 39.2722C0.594333 38.8051 0.381881 38.2379 0.350567 37.6471C0.319253 37.0562 0.470568 36.47 0.784155 35.9672C1.09774 35.4645 1.55858 35.0694 2.10463 34.8351L35.7426 20.4198C36.3806 20.145 37.0964 20.1069 37.7602 20.3125L71.4547 30.723C72.0227 30.8983 72.5232 31.2425 72.8887 31.7093C73.2542 32.1761 73.4672 32.7431 73.499 33.334C73.5309 33.9249 73.3801 34.5114 73.0669 35.0144C72.7537 35.5175 72.2932 35.913 71.7473 36.1478L38.1042 50.5683C37.4668 50.8387 36.7535 50.875 36.0917 50.6704Z" fill="#FFDE00"/>
<path d="M82.9446 64.3398L42.9148 51.9678L82.5801 34.9729L122.61 47.3398L82.9446 64.3398Z" stroke="#FFDE00" stroke-width="3.79" stroke-miterlimit="10" stroke-linecap="round" stroke-dasharray="11.37 11.37"/>
</g>
<defs>
<clipPath id="clip0_35_283">
<rect width="164.421" height="64.7667" fill="white" transform="translate(0.343689 0.599976)"/>
</clipPath>
</defs>
</svg>
